%TF.GenerationSoftware,KiCad,Pcbnew,(6.0.0)*%
%TF.CreationDate,2023-01-12T11:24:50+01:00*%
%TF.ProjectId,AlimThermostats,416c696d-5468-4657-926d-6f7374617473,rev?*%
%TF.SameCoordinates,Original*%
%TF.FileFunction,Copper,L2,Bot*%
%TF.FilePolarity,Positive*%
%FSLAX46Y46*%
G04 Gerber Fmt 4.6, Leading zero omitted, Abs format (unit mm)*
G04 Created by KiCad (PCBNEW (6.0.0)) date 2023-01-12 11:24:50*
%MOMM*%
%LPD*%
G01*
G04 APERTURE LIST*
G04 Aperture macros list*
%AMRoundRect*
0 Rectangle with rounded corners*
0 $1 Rounding radius*
0 $2 $3 $4 $5 $6 $7 $8 $9 X,Y pos of 4 corners*
0 Add a 4 corners polygon primitive as box body*
4,1,4,$2,$3,$4,$5,$6,$7,$8,$9,$2,$3,0*
0 Add four circle primitives for the rounded corners*
1,1,$1+$1,$2,$3*
1,1,$1+$1,$4,$5*
1,1,$1+$1,$6,$7*
1,1,$1+$1,$8,$9*
0 Add four rect primitives between the rounded corners*
20,1,$1+$1,$2,$3,$4,$5,0*
20,1,$1+$1,$4,$5,$6,$7,0*
20,1,$1+$1,$6,$7,$8,$9,0*
20,1,$1+$1,$8,$9,$2,$3,0*%
G04 Aperture macros list end*
%ADD10C,0.300000*%
%TA.AperFunction,NonConductor*%
%ADD11C,0.300000*%
%TD*%
%TA.AperFunction,NonConductor*%
%ADD12C,0.200000*%
%TD*%
%TA.AperFunction,ComponentPad*%
%ADD13R,2.000000X1.905000*%
%TD*%
%TA.AperFunction,ComponentPad*%
%ADD14O,2.000000X1.905000*%
%TD*%
%TA.AperFunction,ComponentPad*%
%ADD15R,2.200000X2.200000*%
%TD*%
%TA.AperFunction,ComponentPad*%
%ADD16O,2.200000X2.200000*%
%TD*%
%TA.AperFunction,ComponentPad*%
%ADD17RoundRect,0.250000X-1.550000X0.650000X-1.550000X-0.650000X1.550000X-0.650000X1.550000X0.650000X0*%
%TD*%
%TA.AperFunction,ComponentPad*%
%ADD18O,3.600000X1.800000*%
%TD*%
%TA.AperFunction,ComponentPad*%
%ADD19O,1.400000X1.400000*%
%TD*%
%TA.AperFunction,ComponentPad*%
%ADD20C,1.400000*%
%TD*%
%TA.AperFunction,ComponentPad*%
%ADD21R,1.524000X1.524000*%
%TD*%
%TA.AperFunction,ComponentPad*%
%ADD22C,1.524000*%
%TD*%
%TA.AperFunction,ComponentPad*%
%ADD23RoundRect,0.250000X-0.650000X-1.550000X0.650000X-1.550000X0.650000X1.550000X-0.650000X1.550000X0*%
%TD*%
%TA.AperFunction,ComponentPad*%
%ADD24O,1.800000X3.600000*%
%TD*%
%TA.AperFunction,ComponentPad*%
%ADD25R,1.050000X1.500000*%
%TD*%
%TA.AperFunction,ComponentPad*%
%ADD26O,1.050000X1.500000*%
%TD*%
%TA.AperFunction,Conductor*%
%ADD27C,1.500000*%
%TD*%
%TA.AperFunction,Conductor*%
%ADD28C,1.000000*%
%TD*%
G04 APERTURE END LIST*
D10*
D11*
X124521428Y-72968571D02*
X124450000Y-72897142D01*
X124378571Y-72754285D01*
X124378571Y-72397142D01*
X124450000Y-72254285D01*
X124521428Y-72182857D01*
X124664285Y-72111428D01*
X124807142Y-72111428D01*
X125021428Y-72182857D01*
X125878571Y-73040000D01*
X125878571Y-72111428D01*
X124878571Y-70825714D02*
X125878571Y-70825714D01*
X124307142Y-71182857D02*
X125378571Y-71540000D01*
X125378571Y-70611428D01*
X125807142Y-69968571D02*
X125878571Y-69968571D01*
X126021428Y-70040000D01*
X126092857Y-70111428D01*
X125878571Y-68540000D02*
X125878571Y-69397142D01*
X125878571Y-68968571D02*
X124378571Y-68968571D01*
X124592857Y-69111428D01*
X124735714Y-69254285D01*
X124807142Y-69397142D01*
X124378571Y-68040000D02*
X124378571Y-67111428D01*
X124950000Y-67611428D01*
X124950000Y-67397142D01*
X125021428Y-67254285D01*
X125092857Y-67182857D01*
X125235714Y-67111428D01*
X125592857Y-67111428D01*
X125735714Y-67182857D01*
X125807142Y-67254285D01*
X125878571Y-67397142D01*
X125878571Y-67825714D01*
X125807142Y-67968571D01*
X125735714Y-68040000D01*
X124378571Y-66182857D02*
X124378571Y-66040000D01*
X124450000Y-65897142D01*
X124521428Y-65825714D01*
X124664285Y-65754285D01*
X124950000Y-65682857D01*
X125307142Y-65682857D01*
X125592857Y-65754285D01*
X125735714Y-65825714D01*
X125807142Y-65897142D01*
X125878571Y-66040000D01*
X125878571Y-66182857D01*
X125807142Y-66325714D01*
X125735714Y-66397142D01*
X125592857Y-66468571D01*
X125307142Y-66540000D01*
X124950000Y-66540000D01*
X124664285Y-66468571D01*
X124521428Y-66397142D01*
X124450000Y-66325714D01*
X124378571Y-66182857D01*
X124378571Y-64754285D02*
X124378571Y-64611428D01*
X124450000Y-64468571D01*
X124521428Y-64397142D01*
X124664285Y-64325714D01*
X124950000Y-64254285D01*
X125307142Y-64254285D01*
X125592857Y-64325714D01*
X125735714Y-64397142D01*
X125807142Y-64468571D01*
X125878571Y-64611428D01*
X125878571Y-64754285D01*
X125807142Y-64897142D01*
X125735714Y-64968571D01*
X125592857Y-65040000D01*
X125307142Y-65111428D01*
X124950000Y-65111428D01*
X124664285Y-65040000D01*
X124521428Y-64968571D01*
X124450000Y-64897142D01*
X124378571Y-64754285D01*
X125878571Y-62468571D02*
X124878571Y-62468571D01*
X125021428Y-62468571D02*
X124950000Y-62397142D01*
X124878571Y-62254285D01*
X124878571Y-62040000D01*
X124950000Y-61897142D01*
X125092857Y-61825714D01*
X125878571Y-61825714D01*
X125092857Y-61825714D02*
X124950000Y-61754285D01*
X124878571Y-61611428D01*
X124878571Y-61397142D01*
X124950000Y-61254285D01*
X125092857Y-61182857D01*
X125878571Y-61182857D01*
X125878571Y-60468571D02*
X124878571Y-60468571D01*
X125021428Y-60468571D02*
X124950000Y-60397142D01*
X124878571Y-60254285D01*
X124878571Y-60040000D01*
X124950000Y-59897142D01*
X125092857Y-59825714D01*
X125878571Y-59825714D01*
X125092857Y-59825714D02*
X124950000Y-59754285D01*
X124878571Y-59611428D01*
X124878571Y-59397142D01*
X124950000Y-59254285D01*
X125092857Y-59182857D01*
X125878571Y-59182857D01*
D12*
X128405000Y-78105000D02*
X126413580Y-78105000D01*
X128405000Y-53975000D02*
X126413580Y-53975000D01*
X127000000Y-78105000D02*
X127000000Y-74154285D01*
X127000000Y-57925714D02*
X127000000Y-53975000D01*
X127000000Y-78105000D02*
X127586421Y-76978496D01*
X127000000Y-78105000D02*
X126413579Y-76978496D01*
X127000000Y-53975000D02*
X126413579Y-55101504D01*
X127000000Y-53975000D02*
X127586421Y-55101504D01*
D10*
D11*
X136581428Y-80071428D02*
X136652857Y-80000000D01*
X136795714Y-79928571D01*
X137152857Y-79928571D01*
X137295714Y-80000000D01*
X137367142Y-80071428D01*
X137438571Y-80214285D01*
X137438571Y-80357142D01*
X137367142Y-80571428D01*
X136510000Y-81428571D01*
X137438571Y-81428571D01*
X137938571Y-79928571D02*
X138938571Y-79928571D01*
X138295714Y-81428571D01*
X139581428Y-81357142D02*
X139581428Y-81428571D01*
X139510000Y-81571428D01*
X139438571Y-81642857D01*
X140295714Y-81428571D02*
X140581428Y-81428571D01*
X140724285Y-81357142D01*
X140795714Y-81285714D01*
X140938571Y-81071428D01*
X141010000Y-80785714D01*
X141010000Y-80214285D01*
X140938571Y-80071428D01*
X140867142Y-80000000D01*
X140724285Y-79928571D01*
X140438571Y-79928571D01*
X140295714Y-80000000D01*
X140224285Y-80071428D01*
X140152857Y-80214285D01*
X140152857Y-80571428D01*
X140224285Y-80714285D01*
X140295714Y-80785714D01*
X140438571Y-80857142D01*
X140724285Y-80857142D01*
X140867142Y-80785714D01*
X140938571Y-80714285D01*
X141010000Y-80571428D01*
X142295714Y-80428571D02*
X142295714Y-81428571D01*
X141938571Y-79857142D02*
X141581428Y-80928571D01*
X142510000Y-80928571D01*
X143367142Y-79928571D02*
X143510000Y-79928571D01*
X143652857Y-80000000D01*
X143724285Y-80071428D01*
X143795714Y-80214285D01*
X143867142Y-80500000D01*
X143867142Y-80857142D01*
X143795714Y-81142857D01*
X143724285Y-81285714D01*
X143652857Y-81357142D01*
X143510000Y-81428571D01*
X143367142Y-81428571D01*
X143224285Y-81357142D01*
X143152857Y-81285714D01*
X143081428Y-81142857D01*
X143010000Y-80857142D01*
X143010000Y-80500000D01*
X143081428Y-80214285D01*
X143152857Y-80071428D01*
X143224285Y-80000000D01*
X143367142Y-79928571D01*
X144795714Y-79928571D02*
X144938571Y-79928571D01*
X145081428Y-80000000D01*
X145152857Y-80071428D01*
X145224285Y-80214285D01*
X145295714Y-80500000D01*
X145295714Y-80857142D01*
X145224285Y-81142857D01*
X145152857Y-81285714D01*
X145081428Y-81357142D01*
X144938571Y-81428571D01*
X144795714Y-81428571D01*
X144652857Y-81357142D01*
X144581428Y-81285714D01*
X144510000Y-81142857D01*
X144438571Y-80857142D01*
X144438571Y-80500000D01*
X144510000Y-80214285D01*
X144581428Y-80071428D01*
X144652857Y-80000000D01*
X144795714Y-79928571D01*
X147081428Y-81428571D02*
X147081428Y-80428571D01*
X147081428Y-80571428D02*
X147152857Y-80500000D01*
X147295714Y-80428571D01*
X147510000Y-80428571D01*
X147652857Y-80500000D01*
X147724285Y-80642857D01*
X147724285Y-81428571D01*
X147724285Y-80642857D02*
X147795714Y-80500000D01*
X147938571Y-80428571D01*
X148152857Y-80428571D01*
X148295714Y-80500000D01*
X148367142Y-80642857D01*
X148367142Y-81428571D01*
X149081428Y-81428571D02*
X149081428Y-80428571D01*
X149081428Y-80571428D02*
X149152857Y-80500000D01*
X149295714Y-80428571D01*
X149510000Y-80428571D01*
X149652857Y-80500000D01*
X149724285Y-80642857D01*
X149724285Y-81428571D01*
X149724285Y-80642857D02*
X149795714Y-80500000D01*
X149938571Y-80428571D01*
X150152857Y-80428571D01*
X150295714Y-80500000D01*
X150367142Y-80642857D01*
X150367142Y-81428571D01*
D12*
X129540000Y-79240000D02*
X129540000Y-83136420D01*
X157480000Y-79240000D02*
X157480000Y-83136420D01*
X129540000Y-82550000D02*
X135395715Y-82550000D01*
X151624286Y-82550000D02*
X157480000Y-82550000D01*
X129540000Y-82550000D02*
X130666504Y-83136421D01*
X129540000Y-82550000D02*
X130666504Y-81963579D01*
X157480000Y-82550000D02*
X156353496Y-81963579D01*
X157480000Y-82550000D02*
X156353496Y-83136421D01*
D13*
%TO.P,U1,1,VI*%
%TO.N,Net-(D1-Pad2)*%
X144780000Y-68580000D03*
D14*
%TO.P,U1,2,GND*%
%TO.N,GND*%
X144780000Y-71120000D03*
%TO.P,U1,3,VO*%
%TO.N,Net-(J2-Pad3)*%
X144780000Y-73660000D03*
%TD*%
D15*
%TO.P,D1,1,K*%
%TO.N,Net-(D1-Pad1)*%
X132080000Y-66040000D03*
D16*
%TO.P,D1,2,A*%
%TO.N,Net-(D1-Pad2)*%
X132080000Y-76200000D03*
%TD*%
D17*
%TO.P,J2,1,Pin_1*%
%TO.N,Net-(J2-Pad1)*%
X152400000Y-67930000D03*
D18*
%TO.P,J2,2,Pin_2*%
%TO.N,GND*%
X152400000Y-71430000D03*
%TO.P,J2,3,Pin_3*%
%TO.N,Net-(J2-Pad3)*%
X152400000Y-74930000D03*
%TD*%
D19*
%TO.P,R1,2*%
%TO.N,Net-(J2-Pad1)*%
X153670000Y-63500000D03*
D20*
%TO.P,R1,1*%
%TO.N,Net-(Q1-Pad2)*%
X146050000Y-63500000D03*
%TD*%
D21*
%TO.P,K1,1*%
%TO.N,Net-(K1-Pad1)*%
X140970000Y-66040000D03*
D22*
%TO.P,K1,2*%
%TO.N,unconnected-(K1-Pad2)*%
X135890000Y-66040000D03*
%TO.P,K1,3*%
%TO.N,Net-(D1-Pad2)*%
X140970000Y-68580000D03*
%TO.P,K1,4*%
%TO.N,Net-(D1-Pad1)*%
X135890000Y-68580000D03*
%TO.P,K1,5*%
%TO.N,Net-(D1-Pad2)*%
X140970000Y-76200000D03*
%TO.P,K1,6*%
X135890000Y-76200000D03*
%TD*%
D23*
%TO.P,J1,1,Pin_1*%
%TO.N,GND*%
X142550000Y-59055000D03*
D24*
%TO.P,J1,2,Pin_2*%
%TO.N,Net-(K1-Pad1)*%
X146050000Y-59055000D03*
%TO.P,J1,3,Pin_3*%
%TO.N,GND*%
X149550000Y-59055000D03*
%TO.P,J1,4,Pin_4*%
%TO.N,Net-(D1-Pad2)*%
X153050000Y-59055000D03*
%TD*%
D25*
%TO.P,Q1,1,D*%
%TO.N,Net-(D1-Pad1)*%
X133350000Y-59690000D03*
D26*
%TO.P,Q1,2,G*%
%TO.N,Net-(Q1-Pad2)*%
X134620000Y-59690000D03*
%TO.P,Q1,3,S*%
%TO.N,GND*%
X135890000Y-59690000D03*
%TD*%
D19*
%TO.P,R2,2*%
%TO.N,Net-(Q1-Pad2)*%
X143510000Y-63500000D03*
D20*
%TO.P,R2,1*%
%TO.N,GND*%
X135890000Y-63500000D03*
%TD*%
D27*
%TO.N,Net-(J2-Pad1)*%
X153670000Y-65405000D02*
X152400000Y-66675000D01*
X153670000Y-63500000D02*
X153670000Y-65405000D01*
X152400000Y-66675000D02*
X152400000Y-67930000D01*
%TO.N,Net-(J2-Pad3)*%
X146050000Y-74930000D02*
X144780000Y-73660000D01*
X152400000Y-74930000D02*
X146050000Y-74930000D01*
%TO.N,Net-(K1-Pad1)*%
X146050000Y-60325000D02*
X146050000Y-59055000D01*
X148590000Y-62865000D02*
X146050000Y-60325000D01*
X148590000Y-64135000D02*
X148590000Y-62865000D01*
X146685000Y-66040000D02*
X148590000Y-64135000D01*
X140970000Y-66040000D02*
X146685000Y-66040000D01*
%TO.N,Net-(Q1-Pad2)*%
X139065000Y-63500000D02*
X137160000Y-61595000D01*
X143510000Y-63500000D02*
X139065000Y-63500000D01*
D28*
X135255000Y-61595000D02*
X137160000Y-61595000D01*
X134620000Y-60960000D02*
X135255000Y-61595000D01*
X134620000Y-59690000D02*
X134620000Y-60960000D01*
%TO.N,Net-(D1-Pad1)*%
X132080000Y-62230000D02*
X132080000Y-66040000D01*
X133350000Y-60960000D02*
X132080000Y-62230000D01*
X133350000Y-59690000D02*
X133350000Y-60960000D01*
D27*
%TO.N,Net-(D1-Pad2)*%
X153050000Y-60945000D02*
X153050000Y-59055000D01*
X151130000Y-64730000D02*
X151130000Y-62865000D01*
X147280000Y-68580000D02*
X151130000Y-64730000D01*
X151130000Y-62865000D02*
X153050000Y-60945000D01*
X144780000Y-68580000D02*
X147280000Y-68580000D01*
X135890000Y-76200000D02*
X132080000Y-76200000D01*
X140970000Y-68580000D02*
X140970000Y-76200000D01*
X140970000Y-68580000D02*
X144780000Y-68580000D01*
X140970000Y-76200000D02*
X135890000Y-76200000D01*
%TO.N,Net-(D1-Pad1)*%
X132080000Y-67310000D02*
X132080000Y-66040000D01*
X133350000Y-68580000D02*
X132080000Y-67310000D01*
X135890000Y-68580000D02*
X133350000Y-68580000D01*
%TO.N,Net-(Q1-Pad2)*%
X146050000Y-63500000D02*
X143510000Y-63500000D01*
%TD*%
%TA.AperFunction,Conductor*%
%TO.N,GND*%
G36*
X157422121Y-53995002D02*
G01*
X157468614Y-54048658D01*
X157480000Y-54101000D01*
X157480000Y-77979000D01*
X157459998Y-78047121D01*
X157406342Y-78093614D01*
X157354000Y-78105000D01*
X129666000Y-78105000D01*
X129597879Y-78084998D01*
X129551386Y-78031342D01*
X129540000Y-77979000D01*
X129540000Y-76200000D01*
X130466526Y-76200000D01*
X130486391Y-76452403D01*
X130545495Y-76698591D01*
X130547388Y-76703162D01*
X130547389Y-76703164D01*
X130604974Y-76842185D01*
X130642384Y-76932502D01*
X130774672Y-77148376D01*
X130939102Y-77340898D01*
X131131624Y-77505328D01*
X131347498Y-77637616D01*
X131352068Y-77639509D01*
X131352072Y-77639511D01*
X131576836Y-77732611D01*
X131581409Y-77734505D01*
X131666032Y-77754821D01*
X131822784Y-77792454D01*
X131822790Y-77792455D01*
X131827597Y-77793609D01*
X132080000Y-77813474D01*
X132332403Y-77793609D01*
X132337210Y-77792455D01*
X132337216Y-77792454D01*
X132493968Y-77754821D01*
X132578591Y-77734505D01*
X132583164Y-77732611D01*
X132807928Y-77639511D01*
X132807932Y-77639509D01*
X132812502Y-77637616D01*
X133028376Y-77505328D01*
X133047858Y-77488688D01*
X133112649Y-77459658D01*
X133129689Y-77458500D01*
X135691858Y-77458500D01*
X135702839Y-77458979D01*
X135890000Y-77475353D01*
X135895475Y-77474874D01*
X136077161Y-77458979D01*
X136088142Y-77458500D01*
X140771858Y-77458500D01*
X140782839Y-77458979D01*
X140970000Y-77475353D01*
X141191463Y-77455978D01*
X141335051Y-77417503D01*
X141400886Y-77399863D01*
X141400888Y-77399862D01*
X141406196Y-77398440D01*
X141411178Y-77396117D01*
X141602690Y-77306814D01*
X141602695Y-77306811D01*
X141607677Y-77304488D01*
X141709505Y-77233187D01*
X141785270Y-77180136D01*
X141785273Y-77180134D01*
X141789781Y-77176977D01*
X141946977Y-77019781D01*
X142005136Y-76936722D01*
X142071331Y-76842185D01*
X142071332Y-76842183D01*
X142074488Y-76837676D01*
X142076811Y-76832694D01*
X142076814Y-76832689D01*
X142166117Y-76641178D01*
X142166118Y-76641177D01*
X142168440Y-76636196D01*
X142225978Y-76421463D01*
X142245353Y-76200000D01*
X142228979Y-76012839D01*
X142228500Y-76001858D01*
X142228500Y-73762263D01*
X143270064Y-73762263D01*
X143306404Y-73999744D01*
X143336913Y-74093087D01*
X143379434Y-74223183D01*
X143379437Y-74223189D01*
X143381042Y-74228101D01*
X143491975Y-74441200D01*
X143495085Y-74445342D01*
X143615713Y-74606003D01*
X143636223Y-74633320D01*
X143809912Y-74799301D01*
X143814184Y-74802215D01*
X143994364Y-74925126D01*
X144008378Y-74934686D01*
X144013061Y-74936860D01*
X144013065Y-74936862D01*
X144221595Y-75033658D01*
X144221599Y-75033659D01*
X144226290Y-75035837D01*
X144310181Y-75059102D01*
X144401553Y-75084442D01*
X144456977Y-75116764D01*
X145095479Y-75755267D01*
X145106346Y-75767658D01*
X145119877Y-75785292D01*
X145124023Y-75789065D01*
X145124028Y-75789070D01*
X145180164Y-75840149D01*
X145184459Y-75844247D01*
X145200410Y-75860198D01*
X145220436Y-75876942D01*
X145224391Y-75880392D01*
X145286036Y-75936485D01*
X145290790Y-75939467D01*
X145301230Y-75946016D01*
X145315090Y-75956085D01*
X145328853Y-75967593D01*
X145333734Y-75970377D01*
X145401218Y-76008869D01*
X145405748Y-76011579D01*
X145476344Y-76055864D01*
X145481548Y-76057956D01*
X145492983Y-76062553D01*
X145508413Y-76070012D01*
X145519119Y-76076119D01*
X145519128Y-76076123D01*
X145523993Y-76078898D01*
X145602546Y-76106715D01*
X145607458Y-76108571D01*
X145684783Y-76139656D01*
X145690273Y-76140793D01*
X145702349Y-76143294D01*
X145718844Y-76147899D01*
X145735759Y-76153889D01*
X145818010Y-76167359D01*
X145823180Y-76168317D01*
X145904767Y-76185213D01*
X145909379Y-76185479D01*
X145909380Y-76185479D01*
X145932548Y-76186815D01*
X145945653Y-76188262D01*
X145951910Y-76189286D01*
X145951914Y-76189286D01*
X145957457Y-76190194D01*
X145963070Y-76190106D01*
X145963072Y-76190106D01*
X146064264Y-76188516D01*
X146066243Y-76188500D01*
X150830278Y-76188500D01*
X150892609Y-76204997D01*
X150907066Y-76213227D01*
X151131753Y-76294784D01*
X151137002Y-76295733D01*
X151137005Y-76295734D01*
X151362885Y-76336580D01*
X151362893Y-76336581D01*
X151366969Y-76337318D01*
X151385359Y-76338185D01*
X151390544Y-76338430D01*
X151390551Y-76338430D01*
X151392032Y-76338500D01*
X153360012Y-76338500D01*
X153538175Y-76323383D01*
X153543339Y-76322043D01*
X153543343Y-76322042D01*
X153764375Y-76264673D01*
X153764380Y-76264671D01*
X153769540Y-76263332D01*
X153880769Y-76213227D01*
X153982619Y-76167347D01*
X153982622Y-76167346D01*
X153987480Y-76165157D01*
X154185762Y-76031666D01*
X154209660Y-76008869D01*
X154285537Y-75936485D01*
X154358718Y-75866674D01*
X154501402Y-75674900D01*
X154609733Y-75461828D01*
X154673695Y-75255838D01*
X154679032Y-75238651D01*
X154679033Y-75238645D01*
X154680616Y-75233548D01*
X154703240Y-75062858D01*
X154711323Y-75001873D01*
X154711323Y-75001869D01*
X154712023Y-74996589D01*
X154703055Y-74757726D01*
X154653970Y-74523789D01*
X154566171Y-74301467D01*
X154442168Y-74097117D01*
X154285507Y-73916581D01*
X154281381Y-73913198D01*
X154281377Y-73913194D01*
X154104795Y-73768407D01*
X154100667Y-73765022D01*
X154096031Y-73762383D01*
X154096028Y-73762381D01*
X153919613Y-73661960D01*
X153892934Y-73646773D01*
X153668247Y-73565216D01*
X153662998Y-73564267D01*
X153662995Y-73564266D01*
X153437115Y-73523420D01*
X153437107Y-73523419D01*
X153433031Y-73522682D01*
X153414641Y-73521815D01*
X153409456Y-73521570D01*
X153409449Y-73521570D01*
X153407968Y-73521500D01*
X151439988Y-73521500D01*
X151261825Y-73536617D01*
X151256661Y-73537957D01*
X151256657Y-73537958D01*
X151035625Y-73595327D01*
X151035620Y-73595329D01*
X151030460Y-73596668D01*
X151025594Y-73598860D01*
X150889020Y-73660382D01*
X150837269Y-73671500D01*
X146623478Y-73671500D01*
X146555357Y-73651498D01*
X146534383Y-73634595D01*
X146288729Y-73388941D01*
X146255254Y-73329044D01*
X146254378Y-73325368D01*
X146253596Y-73320256D01*
X146233498Y-73258765D01*
X146180566Y-73096817D01*
X146180563Y-73096811D01*
X146178958Y-73091899D01*
X146068025Y-72878800D01*
X145923777Y-72686680D01*
X145750088Y-72520699D01*
X145551622Y-72385314D01*
X145546939Y-72383140D01*
X145546935Y-72383138D01*
X145338405Y-72286342D01*
X145338401Y-72286341D01*
X145333710Y-72284163D01*
X145102202Y-72219960D01*
X145097065Y-72219411D01*
X144909407Y-72199356D01*
X144909399Y-72199356D01*
X144906072Y-72199000D01*
X144671598Y-72199000D01*
X144669025Y-72199212D01*
X144669014Y-72199212D01*
X144568054Y-72207513D01*
X144493063Y-72213678D01*
X144260056Y-72272206D01*
X144131229Y-72328221D01*
X144044474Y-72365943D01*
X144044471Y-72365945D01*
X144039737Y-72368003D01*
X143838023Y-72498498D01*
X143660330Y-72660186D01*
X143636141Y-72690815D01*
X143514633Y-72844670D01*
X143514630Y-72844675D01*
X143511432Y-72848724D01*
X143508939Y-72853240D01*
X143508937Y-72853243D01*
X143397823Y-73054526D01*
X143395326Y-73059050D01*
X143315130Y-73285515D01*
X143314223Y-73290608D01*
X143314222Y-73290611D01*
X143308942Y-73320256D01*
X143272999Y-73522037D01*
X143270064Y-73762263D01*
X142228500Y-73762263D01*
X142228500Y-69964500D01*
X142248502Y-69896379D01*
X142302158Y-69849886D01*
X142354500Y-69838500D01*
X143310797Y-69838500D01*
X143378918Y-69858502D01*
X143404724Y-69882515D01*
X143405008Y-69882231D01*
X143411357Y-69888580D01*
X143416739Y-69895761D01*
X143533295Y-69983115D01*
X143669684Y-70034245D01*
X143731866Y-70041000D01*
X145828134Y-70041000D01*
X145890316Y-70034245D01*
X146026705Y-69983115D01*
X146143261Y-69895761D01*
X146148643Y-69888580D01*
X146154992Y-69882231D01*
X146155997Y-69883236D01*
X146205238Y-69846419D01*
X146249203Y-69838500D01*
X147188604Y-69838500D01*
X147205051Y-69839578D01*
X147221516Y-69841746D01*
X147221520Y-69841746D01*
X147227086Y-69842479D01*
X147308489Y-69838640D01*
X147314424Y-69838500D01*
X147336999Y-69838500D01*
X147362989Y-69836181D01*
X147368248Y-69835822D01*
X147451488Y-69831896D01*
X147456947Y-69830646D01*
X147456952Y-69830645D01*
X147468970Y-69827892D01*
X147485899Y-69825211D01*
X147503762Y-69823617D01*
X147509178Y-69822135D01*
X147509180Y-69822135D01*
X147584133Y-69801630D01*
X147589251Y-69800344D01*
X147665000Y-69782995D01*
X147665002Y-69782994D01*
X147670470Y-69781742D01*
X147683658Y-69776117D01*
X147686967Y-69774706D01*
X147703142Y-69769073D01*
X147715039Y-69765818D01*
X147715043Y-69765817D01*
X147720451Y-69764337D01*
X147790826Y-69730770D01*
X147795667Y-69728461D01*
X147800476Y-69726290D01*
X147871949Y-69695804D01*
X147871950Y-69695804D01*
X147877109Y-69693603D01*
X147892110Y-69683749D01*
X147907025Y-69675346D01*
X147923218Y-69667622D01*
X147927769Y-69664352D01*
X147927772Y-69664350D01*
X147960996Y-69640476D01*
X147990892Y-69618994D01*
X147995232Y-69616011D01*
X148061010Y-69572804D01*
X148061018Y-69572798D01*
X148064874Y-69570265D01*
X148085662Y-69551743D01*
X148095939Y-69543510D01*
X148105654Y-69536529D01*
X148180063Y-69459745D01*
X148181452Y-69458335D01*
X149876405Y-67763383D01*
X149938717Y-67729357D01*
X150009533Y-67734422D01*
X150066368Y-67776969D01*
X150091179Y-67843489D01*
X150091500Y-67852478D01*
X150091500Y-68630400D01*
X150102474Y-68736166D01*
X150158450Y-68903946D01*
X150251522Y-69054348D01*
X150376697Y-69179305D01*
X150382927Y-69183145D01*
X150382928Y-69183146D01*
X150520090Y-69267694D01*
X150527262Y-69272115D01*
X150607005Y-69298564D01*
X150688611Y-69325632D01*
X150688613Y-69325632D01*
X150695139Y-69327797D01*
X150701975Y-69328497D01*
X150701978Y-69328498D01*
X150745031Y-69332909D01*
X150799600Y-69338500D01*
X154000400Y-69338500D01*
X154003646Y-69338163D01*
X154003650Y-69338163D01*
X154099308Y-69328238D01*
X154099312Y-69328237D01*
X154106166Y-69327526D01*
X154112702Y-69325345D01*
X154112704Y-69325345D01*
X154244806Y-69281272D01*
X154273946Y-69271550D01*
X154424348Y-69178478D01*
X154549305Y-69053303D01*
X154642115Y-68902738D01*
X154677524Y-68795984D01*
X154695632Y-68741389D01*
X154695632Y-68741387D01*
X154697797Y-68734861D01*
X154708500Y-68630400D01*
X154708500Y-67229600D01*
X154702383Y-67170642D01*
X154698238Y-67130692D01*
X154698237Y-67130688D01*
X154697526Y-67123834D01*
X154641550Y-66956054D01*
X154548478Y-66805652D01*
X154423303Y-66680695D01*
X154404820Y-66669302D01*
X154357327Y-66616530D01*
X154345903Y-66546459D01*
X154374177Y-66481335D01*
X154381841Y-66472947D01*
X154495263Y-66359525D01*
X154507654Y-66348657D01*
X154520841Y-66338538D01*
X154525292Y-66335123D01*
X154529065Y-66330977D01*
X154529070Y-66330972D01*
X154580149Y-66274836D01*
X154584247Y-66270541D01*
X154600198Y-66254590D01*
X154616942Y-66234564D01*
X154620401Y-66230599D01*
X154672708Y-66173115D01*
X154672709Y-66173114D01*
X154676485Y-66168964D01*
X154686016Y-66153770D01*
X154696085Y-66139910D01*
X154707593Y-66126147D01*
X154748869Y-66053782D01*
X154751579Y-66049253D01*
X154792885Y-65983405D01*
X154795864Y-65978656D01*
X154802553Y-65962017D01*
X154810012Y-65946587D01*
X154816119Y-65935881D01*
X154816123Y-65935872D01*
X154818898Y-65931007D01*
X154846715Y-65852454D01*
X154848576Y-65847529D01*
X154879656Y-65770217D01*
X154883294Y-65752650D01*
X154887899Y-65736156D01*
X154893889Y-65719241D01*
X154907359Y-65636990D01*
X154908319Y-65631811D01*
X154924276Y-65554758D01*
X154924276Y-65554757D01*
X154925213Y-65550233D01*
X154926815Y-65522452D01*
X154928262Y-65509347D01*
X154929286Y-65503090D01*
X154929286Y-65503086D01*
X154930194Y-65497543D01*
X154928516Y-65390736D01*
X154928500Y-65388757D01*
X154928500Y-63443001D01*
X154923439Y-63386287D01*
X154914116Y-63281833D01*
X154913617Y-63276238D01*
X154854337Y-63059549D01*
X154757622Y-62856782D01*
X154626529Y-62674346D01*
X154553942Y-62604004D01*
X154469229Y-62521911D01*
X154469226Y-62521909D01*
X154465201Y-62518008D01*
X154278738Y-62392710D01*
X154073033Y-62302412D01*
X154067582Y-62301103D01*
X154067578Y-62301102D01*
X153860046Y-62251278D01*
X153860045Y-62251278D01*
X153854589Y-62249968D01*
X153823351Y-62248167D01*
X153756494Y-62224277D01*
X153713167Y-62168035D01*
X153707124Y-62097296D01*
X153741508Y-62033281D01*
X153875267Y-61899522D01*
X153887658Y-61888654D01*
X153900848Y-61878533D01*
X153905292Y-61875123D01*
X153960158Y-61814826D01*
X153964257Y-61810531D01*
X153980198Y-61794590D01*
X153981995Y-61792441D01*
X153996932Y-61774577D01*
X154000400Y-61770602D01*
X154052712Y-61713112D01*
X154052719Y-61713103D01*
X154056485Y-61708964D01*
X154066014Y-61693773D01*
X154076089Y-61679907D01*
X154083996Y-61670451D01*
X154084003Y-61670441D01*
X154087594Y-61666146D01*
X154128887Y-61593752D01*
X154131592Y-61589232D01*
X154172886Y-61523404D01*
X154172888Y-61523401D01*
X154175864Y-61518656D01*
X154182552Y-61502021D01*
X154190012Y-61486589D01*
X154196120Y-61475881D01*
X154196124Y-61475872D01*
X154198899Y-61471007D01*
X154200768Y-61465730D01*
X154200770Y-61465725D01*
X154226715Y-61392458D01*
X154228580Y-61387522D01*
X154257566Y-61315416D01*
X154259656Y-61310217D01*
X154263294Y-61292650D01*
X154267899Y-61276156D01*
X154273889Y-61259241D01*
X154287359Y-61176990D01*
X154288319Y-61171811D01*
X154292701Y-61150654D01*
X154305213Y-61090233D01*
X154306815Y-61062452D01*
X154308262Y-61049347D01*
X154309286Y-61043090D01*
X154309286Y-61043086D01*
X154310194Y-61037543D01*
X154308516Y-60930736D01*
X154308500Y-60928757D01*
X154308500Y-60624722D01*
X154324997Y-60562391D01*
X154333227Y-60547934D01*
X154414784Y-60323247D01*
X154437370Y-60198346D01*
X154456580Y-60092115D01*
X154456581Y-60092107D01*
X154457318Y-60088031D01*
X154458500Y-60062968D01*
X154458500Y-58094988D01*
X154443383Y-57916825D01*
X154383332Y-57685460D01*
X154327747Y-57562066D01*
X154287347Y-57472381D01*
X154287346Y-57472378D01*
X154285157Y-57467520D01*
X154151666Y-57269238D01*
X153986674Y-57096282D01*
X153794900Y-56953598D01*
X153790149Y-56951182D01*
X153790145Y-56951180D01*
X153586586Y-56847686D01*
X153586585Y-56847686D01*
X153581828Y-56845267D01*
X153439362Y-56801030D01*
X153358651Y-56775968D01*
X153358645Y-56775967D01*
X153353548Y-56774384D01*
X153226117Y-56757494D01*
X153121873Y-56743677D01*
X153121869Y-56743677D01*
X153116589Y-56742977D01*
X153111260Y-56743177D01*
X153111259Y-56743177D01*
X153013491Y-56746848D01*
X152877726Y-56751945D01*
X152790816Y-56770181D01*
X152649016Y-56799933D01*
X152649013Y-56799934D01*
X152643789Y-56801030D01*
X152421467Y-56888829D01*
X152217117Y-57012832D01*
X152036581Y-57169493D01*
X152033198Y-57173619D01*
X152033194Y-57173623D01*
X151954795Y-57269238D01*
X151885022Y-57354333D01*
X151766773Y-57562066D01*
X151685216Y-57786753D01*
X151684267Y-57792002D01*
X151684266Y-57792005D01*
X151643420Y-58017885D01*
X151643419Y-58017893D01*
X151642682Y-58021969D01*
X151641500Y-58047032D01*
X151641500Y-60015012D01*
X151656617Y-60193175D01*
X151657958Y-60198343D01*
X151657959Y-60198346D01*
X151713807Y-60413520D01*
X151711560Y-60484481D01*
X151680943Y-60534269D01*
X150304737Y-61910475D01*
X150292347Y-61921342D01*
X150274708Y-61934877D01*
X150220188Y-61994794D01*
X150219842Y-61995174D01*
X150215743Y-61999469D01*
X150199802Y-62015410D01*
X150198007Y-62017557D01*
X150198005Y-62017559D01*
X150183068Y-62035423D01*
X150179600Y-62039398D01*
X150127288Y-62096888D01*
X150127281Y-62096897D01*
X150123515Y-62101036D01*
X150120538Y-62105782D01*
X150120537Y-62105783D01*
X150113987Y-62116225D01*
X150103911Y-62130093D01*
X150096004Y-62139549D01*
X150095997Y-62139559D01*
X150092406Y-62143854D01*
X150069823Y-62183447D01*
X150051118Y-62216240D01*
X150048408Y-62220768D01*
X150008764Y-62283967D01*
X150004136Y-62291344D01*
X150002043Y-62296549D01*
X150002042Y-62296552D01*
X149997448Y-62307979D01*
X149989988Y-62323411D01*
X149983880Y-62334119D01*
X149983876Y-62334128D01*
X149981101Y-62338993D01*
X149978281Y-62346958D01*
X149977156Y-62350134D01*
X149935563Y-62407671D01*
X149869466Y-62433589D01*
X149799850Y-62419657D01*
X149748817Y-62370299D01*
X149744656Y-62362322D01*
X149738461Y-62349334D01*
X149736290Y-62344524D01*
X149705804Y-62273051D01*
X149705804Y-62273050D01*
X149703603Y-62267891D01*
X149693749Y-62252890D01*
X149685343Y-62237970D01*
X149682779Y-62232593D01*
X149677622Y-62221782D01*
X149674354Y-62217234D01*
X149674351Y-62217229D01*
X149628998Y-62154114D01*
X149626009Y-62149765D01*
X149625323Y-62148720D01*
X149580265Y-62080125D01*
X149561747Y-62059341D01*
X149553498Y-62049045D01*
X149549804Y-62043904D01*
X149546529Y-62039346D01*
X149469777Y-61964968D01*
X149468367Y-61963579D01*
X147495405Y-59990617D01*
X147461379Y-59928305D01*
X147458500Y-59901522D01*
X147458500Y-58094988D01*
X147443383Y-57916825D01*
X147383332Y-57685460D01*
X147327747Y-57562066D01*
X147287347Y-57472381D01*
X147287346Y-57472378D01*
X147285157Y-57467520D01*
X147151666Y-57269238D01*
X146986674Y-57096282D01*
X146794900Y-56953598D01*
X146790149Y-56951182D01*
X146790145Y-56951180D01*
X146586586Y-56847686D01*
X146586585Y-56847686D01*
X146581828Y-56845267D01*
X146439362Y-56801030D01*
X146358651Y-56775968D01*
X146358645Y-56775967D01*
X146353548Y-56774384D01*
X146226117Y-56757494D01*
X146121873Y-56743677D01*
X146121869Y-56743677D01*
X146116589Y-56742977D01*
X146111260Y-56743177D01*
X146111259Y-56743177D01*
X146013491Y-56746848D01*
X145877726Y-56751945D01*
X145790816Y-56770181D01*
X145649016Y-56799933D01*
X145649013Y-56799934D01*
X145643789Y-56801030D01*
X145421467Y-56888829D01*
X145217117Y-57012832D01*
X145036581Y-57169493D01*
X145033198Y-57173619D01*
X145033194Y-57173623D01*
X144954795Y-57269238D01*
X144885022Y-57354333D01*
X144766773Y-57562066D01*
X144685216Y-57786753D01*
X144684267Y-57792002D01*
X144684266Y-57792005D01*
X144643420Y-58017885D01*
X144643419Y-58017893D01*
X144642682Y-58021969D01*
X144641500Y-58047032D01*
X144641500Y-60015012D01*
X144656617Y-60193175D01*
X144657957Y-60198339D01*
X144657958Y-60198343D01*
X144713808Y-60413520D01*
X144716668Y-60424540D01*
X144718860Y-60429406D01*
X144806844Y-60624722D01*
X144814843Y-60642480D01*
X144827081Y-60660658D01*
X144845376Y-60702890D01*
X144848258Y-60715470D01*
X144850461Y-60720634D01*
X144855294Y-60731967D01*
X144860927Y-60748142D01*
X144865663Y-60765451D01*
X144868079Y-60770516D01*
X144901539Y-60840667D01*
X144903710Y-60845476D01*
X144936397Y-60922109D01*
X144946251Y-60937110D01*
X144954654Y-60952025D01*
X144962378Y-60968218D01*
X144965648Y-60972769D01*
X144965650Y-60972772D01*
X145010999Y-61035881D01*
X145013989Y-61040232D01*
X145057196Y-61106010D01*
X145057202Y-61106018D01*
X145059735Y-61109874D01*
X145078257Y-61130662D01*
X145086490Y-61140939D01*
X145093471Y-61150654D01*
X145117980Y-61174405D01*
X145170254Y-61225062D01*
X145171601Y-61226388D01*
X145971619Y-62026407D01*
X146005643Y-62088717D01*
X146000578Y-62159533D01*
X145958031Y-62216368D01*
X145891511Y-62241179D01*
X145882522Y-62241500D01*
X139638477Y-62241500D01*
X139570356Y-62221498D01*
X139549382Y-62204595D01*
X138011577Y-60666789D01*
X138009590Y-60664802D01*
X137881146Y-60557406D01*
X137686007Y-60446101D01*
X137680730Y-60444232D01*
X137680725Y-60444230D01*
X137479531Y-60372984D01*
X137479528Y-60372983D01*
X137474241Y-60371111D01*
X137252543Y-60334806D01*
X137246930Y-60334894D01*
X137246927Y-60334894D01*
X137128124Y-60336761D01*
X137027919Y-60338335D01*
X137022414Y-60339415D01*
X136812979Y-60380504D01*
X136812975Y-60380505D01*
X136807471Y-60381585D01*
X136802245Y-60383623D01*
X136802240Y-60383624D01*
X136697297Y-60424540D01*
X136598165Y-60463190D01*
X136427240Y-60567933D01*
X136361405Y-60586500D01*
X135754500Y-60586500D01*
X135686379Y-60566498D01*
X135639886Y-60512842D01*
X135628500Y-60460500D01*
X135628500Y-60173456D01*
X135633224Y-60142934D01*
X135632663Y-60142815D01*
X135633944Y-60136788D01*
X135635807Y-60130916D01*
X135640160Y-60092115D01*
X135653107Y-59976683D01*
X135653500Y-59973183D01*
X135653500Y-59413996D01*
X135638723Y-59263287D01*
X135580142Y-59069258D01*
X135484990Y-58890302D01*
X135356890Y-58733237D01*
X135318772Y-58701703D01*
X135205472Y-58607973D01*
X135205469Y-58607971D01*
X135200722Y-58604044D01*
X135022435Y-58507644D01*
X134925627Y-58477677D01*
X134834707Y-58449532D01*
X134834704Y-58449531D01*
X134828820Y-58447710D01*
X134822695Y-58447066D01*
X134822694Y-58447066D01*
X134633378Y-58427168D01*
X134633377Y-58427168D01*
X134627250Y-58426524D01*
X134543986Y-58434102D01*
X134431543Y-58444335D01*
X134431540Y-58444336D01*
X134425404Y-58444894D01*
X134419498Y-58446632D01*
X134419494Y-58446633D01*
X134236879Y-58500380D01*
X134236877Y-58500381D01*
X134235493Y-58500788D01*
X134230971Y-58502119D01*
X134230718Y-58501260D01*
X134165338Y-58507714D01*
X134128594Y-58494548D01*
X134121705Y-58489385D01*
X134113304Y-58486236D01*
X134113301Y-58486234D01*
X134001534Y-58444335D01*
X133985316Y-58438255D01*
X133923134Y-58431500D01*
X132776866Y-58431500D01*
X132714684Y-58438255D01*
X132578295Y-58489385D01*
X132461739Y-58576739D01*
X132374385Y-58693295D01*
X132323255Y-58829684D01*
X132316500Y-58891866D01*
X132316500Y-60488134D01*
X132317735Y-60499502D01*
X132305204Y-60569384D01*
X132281566Y-60602200D01*
X131410621Y-61473145D01*
X131400478Y-61482247D01*
X131370975Y-61505968D01*
X131338709Y-61544421D01*
X131335528Y-61548069D01*
X131333885Y-61549881D01*
X131331691Y-61552075D01*
X131304358Y-61585349D01*
X131303696Y-61586147D01*
X131243846Y-61657474D01*
X131241278Y-61662144D01*
X131237897Y-61666261D01*
X131215000Y-61708964D01*
X131194023Y-61748086D01*
X131193394Y-61749245D01*
X131151538Y-61825381D01*
X131151535Y-61825389D01*
X131148567Y-61830787D01*
X131146955Y-61835869D01*
X131144438Y-61840563D01*
X131117238Y-61929531D01*
X131116918Y-61930559D01*
X131088765Y-62019306D01*
X131088171Y-62024602D01*
X131086613Y-62029698D01*
X131077824Y-62116225D01*
X131077218Y-62122187D01*
X131077089Y-62123393D01*
X131071500Y-62173227D01*
X131071500Y-62176754D01*
X131071445Y-62177739D01*
X131070998Y-62183419D01*
X131068847Y-62204595D01*
X131067432Y-62218531D01*
X131066626Y-62226462D01*
X131068048Y-62241500D01*
X131070941Y-62272109D01*
X131071500Y-62283967D01*
X131071500Y-64305500D01*
X131051498Y-64373621D01*
X130997842Y-64420114D01*
X130945500Y-64431500D01*
X130931866Y-64431500D01*
X130869684Y-64438255D01*
X130733295Y-64489385D01*
X130616739Y-64576739D01*
X130529385Y-64693295D01*
X130478255Y-64829684D01*
X130471500Y-64891866D01*
X130471500Y-67188134D01*
X130478255Y-67250316D01*
X130529385Y-67386705D01*
X130616739Y-67503261D01*
X130640433Y-67521019D01*
X130726113Y-67585233D01*
X130726116Y-67585235D01*
X130733295Y-67590615D01*
X130801473Y-67616173D01*
X130858237Y-67658814D01*
X130877039Y-67695146D01*
X130878258Y-67700470D01*
X130880460Y-67705632D01*
X130885294Y-67716967D01*
X130890927Y-67733142D01*
X130894182Y-67745039D01*
X130895663Y-67750451D01*
X130898079Y-67755516D01*
X130931539Y-67825667D01*
X130933710Y-67830476D01*
X130966397Y-67907109D01*
X130976251Y-67922110D01*
X130984654Y-67937025D01*
X130992378Y-67953218D01*
X130995648Y-67957769D01*
X130995650Y-67957772D01*
X131040999Y-68020881D01*
X131043989Y-68025232D01*
X131087196Y-68091010D01*
X131087202Y-68091018D01*
X131089735Y-68094874D01*
X131108257Y-68115662D01*
X131116490Y-68125939D01*
X131123471Y-68135654D01*
X131137361Y-68149114D01*
X131200254Y-68210062D01*
X131201664Y-68211451D01*
X132395475Y-69405263D01*
X132406342Y-69417653D01*
X132419877Y-69435292D01*
X132424023Y-69439065D01*
X132424028Y-69439070D01*
X132480164Y-69490149D01*
X132484459Y-69494247D01*
X132500410Y-69510198D01*
X132520436Y-69526942D01*
X132524391Y-69530392D01*
X132586036Y-69586485D01*
X132590790Y-69589467D01*
X132601230Y-69596016D01*
X132615090Y-69606085D01*
X132628853Y-69617593D01*
X132633734Y-69620377D01*
X132701218Y-69658869D01*
X132705748Y-69661579D01*
X132776344Y-69705864D01*
X132781548Y-69707956D01*
X132792983Y-69712553D01*
X132808413Y-69720012D01*
X132819119Y-69726119D01*
X132819128Y-69726123D01*
X132823993Y-69728898D01*
X132902546Y-69756715D01*
X132907458Y-69758571D01*
X132984783Y-69789656D01*
X132990273Y-69790793D01*
X133002349Y-69793294D01*
X133018844Y-69797899D01*
X133035759Y-69803889D01*
X133118010Y-69817359D01*
X133123180Y-69818317D01*
X133151181Y-69824116D01*
X133188750Y-69831896D01*
X133204767Y-69835213D01*
X133209379Y-69835479D01*
X133209380Y-69835479D01*
X133232548Y-69836815D01*
X133245653Y-69838262D01*
X133251910Y-69839286D01*
X133251914Y-69839286D01*
X133257457Y-69840194D01*
X133263070Y-69840106D01*
X133263072Y-69840106D01*
X133364264Y-69838516D01*
X133366243Y-69838500D01*
X135691858Y-69838500D01*
X135702839Y-69838979D01*
X135890000Y-69855353D01*
X136111463Y-69835978D01*
X136270761Y-69793294D01*
X136320886Y-69779863D01*
X136320888Y-69779862D01*
X136326196Y-69778440D01*
X136334204Y-69774706D01*
X136522690Y-69686814D01*
X136522695Y-69686811D01*
X136527677Y-69684488D01*
X136663381Y-69589467D01*
X136705270Y-69560136D01*
X136705273Y-69560134D01*
X136709781Y-69556977D01*
X136866977Y-69399781D01*
X136909887Y-69338500D01*
X136991331Y-69222185D01*
X136991332Y-69222183D01*
X136994488Y-69217676D01*
X136996811Y-69212694D01*
X136996814Y-69212689D01*
X137086117Y-69021178D01*
X137086118Y-69021177D01*
X137088440Y-69016196D01*
X137145978Y-68801463D01*
X137165353Y-68580000D01*
X137145978Y-68358537D01*
X137088440Y-68143804D01*
X137084640Y-68135654D01*
X136996814Y-67947311D01*
X136996811Y-67947306D01*
X136994488Y-67942324D01*
X136973107Y-67911789D01*
X136870136Y-67764730D01*
X136870134Y-67764727D01*
X136866977Y-67760219D01*
X136709781Y-67603023D01*
X136705273Y-67599866D01*
X136705270Y-67599864D01*
X136574991Y-67508642D01*
X136527677Y-67475512D01*
X136522695Y-67473189D01*
X136522690Y-67473186D01*
X136417627Y-67424195D01*
X136364342Y-67377278D01*
X136344881Y-67309001D01*
X136365423Y-67241041D01*
X136417627Y-67195805D01*
X136522690Y-67146814D01*
X136522695Y-67146811D01*
X136527677Y-67144488D01*
X136676477Y-67040297D01*
X136705270Y-67020136D01*
X136705273Y-67020134D01*
X136709781Y-67016977D01*
X136866977Y-66859781D01*
X136871354Y-66853531D01*
X136991331Y-66682185D01*
X136991332Y-66682183D01*
X136994488Y-66677676D01*
X136996811Y-66672694D01*
X136996814Y-66672689D01*
X137086117Y-66481178D01*
X137086118Y-66481177D01*
X137088440Y-66476196D01*
X137145978Y-66261463D01*
X137165353Y-66040000D01*
X137145978Y-65818537D01*
X137088440Y-65603804D01*
X137086117Y-65598822D01*
X136996814Y-65407311D01*
X136996811Y-65407306D01*
X136994488Y-65402324D01*
X136985661Y-65389718D01*
X136870136Y-65224730D01*
X136870134Y-65224727D01*
X136866977Y-65220219D01*
X136709781Y-65063023D01*
X136705273Y-65059866D01*
X136705270Y-65059864D01*
X136562742Y-64960065D01*
X136527677Y-64935512D01*
X136522695Y-64933189D01*
X136522690Y-64933186D01*
X136331178Y-64843883D01*
X136331177Y-64843882D01*
X136326196Y-64841560D01*
X136320888Y-64840138D01*
X136320886Y-64840137D01*
X136254261Y-64822285D01*
X136111463Y-64784022D01*
X135890000Y-64764647D01*
X135668537Y-64784022D01*
X135525739Y-64822285D01*
X135459114Y-64840137D01*
X135459112Y-64840138D01*
X135453804Y-64841560D01*
X135448823Y-64843882D01*
X135448822Y-64843883D01*
X135257311Y-64933186D01*
X135257306Y-64933189D01*
X135252324Y-64935512D01*
X135247817Y-64938668D01*
X135247815Y-64938669D01*
X135074730Y-65059864D01*
X135074727Y-65059866D01*
X135070219Y-65063023D01*
X134913023Y-65220219D01*
X134909866Y-65224727D01*
X134909864Y-65224730D01*
X134794339Y-65389718D01*
X134785512Y-65402324D01*
X134783189Y-65407306D01*
X134783186Y-65407311D01*
X134693883Y-65598822D01*
X134691560Y-65603804D01*
X134634022Y-65818537D01*
X134614647Y-66040000D01*
X134634022Y-66261463D01*
X134691560Y-66476196D01*
X134693882Y-66481177D01*
X134693883Y-66481178D01*
X134783186Y-66672689D01*
X134783189Y-66672694D01*
X134785512Y-66677676D01*
X134788668Y-66682183D01*
X134788669Y-66682185D01*
X134908647Y-66853531D01*
X134913023Y-66859781D01*
X135070219Y-67016977D01*
X135074727Y-67020134D01*
X135074730Y-67020136D01*
X135177772Y-67092287D01*
X135222100Y-67147744D01*
X135229409Y-67218364D01*
X135197378Y-67281724D01*
X135136177Y-67317709D01*
X135105501Y-67321500D01*
X133923478Y-67321500D01*
X133855357Y-67301498D01*
X133834383Y-67284595D01*
X133725405Y-67175617D01*
X133691379Y-67113305D01*
X133688500Y-67086522D01*
X133688500Y-64891866D01*
X133681745Y-64829684D01*
X133630615Y-64693295D01*
X133543261Y-64576739D01*
X133426705Y-64489385D01*
X133290316Y-64438255D01*
X133228134Y-64431500D01*
X133214500Y-64431500D01*
X133146379Y-64411498D01*
X133099886Y-64357842D01*
X133088500Y-64305500D01*
X133088500Y-62699926D01*
X133108502Y-62631805D01*
X133125405Y-62610831D01*
X133895906Y-61840330D01*
X133958218Y-61806304D01*
X134029033Y-61811369D01*
X134074096Y-61840330D01*
X134498145Y-62264379D01*
X134507247Y-62274522D01*
X134524960Y-62296552D01*
X134530968Y-62304025D01*
X134569421Y-62336291D01*
X134573070Y-62339473D01*
X134574883Y-62341117D01*
X134577075Y-62343309D01*
X134610276Y-62370580D01*
X134611164Y-62371318D01*
X134633974Y-62390457D01*
X134677753Y-62427193D01*
X134677756Y-62427195D01*
X134682474Y-62431154D01*
X134687147Y-62433723D01*
X134691262Y-62437103D01*
X134696691Y-62440014D01*
X134696694Y-62440016D01*
X134773180Y-62481028D01*
X134774338Y-62481657D01*
X134840462Y-62518008D01*
X134855787Y-62526433D01*
X134860865Y-62528044D01*
X134865563Y-62530563D01*
X134954498Y-62557753D01*
X134955702Y-62558128D01*
X135044306Y-62586235D01*
X135049597Y-62586828D01*
X135054698Y-62588388D01*
X135147311Y-62597795D01*
X135148431Y-62597915D01*
X135198227Y-62603500D01*
X135201756Y-62603500D01*
X135202739Y-62603555D01*
X135208426Y-62604003D01*
X135228683Y-62606060D01*
X135245336Y-62607752D01*
X135245339Y-62607752D01*
X135251463Y-62608374D01*
X135297112Y-62604059D01*
X135308969Y-62603500D01*
X136336523Y-62603500D01*
X136404644Y-62623502D01*
X136425618Y-62640405D01*
X138110472Y-64325259D01*
X138121340Y-64337651D01*
X138131462Y-64350843D01*
X138131469Y-64350851D01*
X138134877Y-64355292D01*
X138194826Y-64409841D01*
X138195185Y-64410168D01*
X138199480Y-64414267D01*
X138215411Y-64430198D01*
X138235427Y-64446934D01*
X138239376Y-64450379D01*
X138296879Y-64502703D01*
X138296883Y-64502706D01*
X138301036Y-64506485D01*
X138305791Y-64509468D01*
X138305794Y-64509470D01*
X138316224Y-64516012D01*
X138330097Y-64526091D01*
X138339545Y-64533992D01*
X138339552Y-64533997D01*
X138343854Y-64537594D01*
X138348730Y-64540375D01*
X138416240Y-64578882D01*
X138420759Y-64581587D01*
X138446938Y-64598009D01*
X138486596Y-64622886D01*
X138486599Y-64622888D01*
X138491344Y-64625864D01*
X138496549Y-64627957D01*
X138496552Y-64627958D01*
X138507979Y-64632552D01*
X138523411Y-64640012D01*
X138534119Y-64646120D01*
X138534128Y-64646124D01*
X138538993Y-64648899D01*
X138544270Y-64650768D01*
X138544275Y-64650770D01*
X138617542Y-64676715D01*
X138622478Y-64678580D01*
X138699783Y-64709656D01*
X138705270Y-64710792D01*
X138705272Y-64710793D01*
X138717349Y-64713294D01*
X138733844Y-64717899D01*
X138750759Y-64723889D01*
X138756296Y-64724796D01*
X138756297Y-64724796D01*
X138832991Y-64737355D01*
X138838181Y-64738317D01*
X138915246Y-64754277D01*
X138915250Y-64754278D01*
X138919767Y-64755213D01*
X138924376Y-64755479D01*
X138924378Y-64755479D01*
X138947548Y-64756815D01*
X138960653Y-64758262D01*
X138966910Y-64759286D01*
X138966917Y-64759286D01*
X138972458Y-64760194D01*
X138978070Y-64760106D01*
X138978072Y-64760106D01*
X139079264Y-64758516D01*
X139081243Y-64758500D01*
X139709943Y-64758500D01*
X139778064Y-64778502D01*
X139824557Y-64832158D01*
X139834661Y-64902432D01*
X139810769Y-64960065D01*
X139757385Y-65031295D01*
X139706255Y-65167684D01*
X139699500Y-65229866D01*
X139699500Y-66850134D01*
X139706255Y-66912316D01*
X139757385Y-67048705D01*
X139844739Y-67165261D01*
X139961295Y-67252615D01*
X140097684Y-67303745D01*
X140159866Y-67310500D01*
X140168364Y-67310500D01*
X140236485Y-67330502D01*
X140282978Y-67384158D01*
X140293082Y-67454432D01*
X140263588Y-67519012D01*
X140240635Y-67539713D01*
X140154730Y-67599864D01*
X140154727Y-67599866D01*
X140150219Y-67603023D01*
X139993023Y-67760219D01*
X139989866Y-67764727D01*
X139989864Y-67764730D01*
X139886893Y-67911789D01*
X139865512Y-67942324D01*
X139863189Y-67947306D01*
X139863186Y-67947311D01*
X139775360Y-68135654D01*
X139771560Y-68143804D01*
X139714022Y-68358537D01*
X139694647Y-68580000D01*
X139695126Y-68585475D01*
X139711021Y-68767161D01*
X139711500Y-68778142D01*
X139711500Y-74815500D01*
X139691498Y-74883621D01*
X139637842Y-74930114D01*
X139585500Y-74941500D01*
X136088142Y-74941500D01*
X136077161Y-74941021D01*
X135895475Y-74925126D01*
X135890000Y-74924647D01*
X135884525Y-74925126D01*
X135702839Y-74941021D01*
X135691858Y-74941500D01*
X133129689Y-74941500D01*
X133061568Y-74921498D01*
X133047859Y-74911312D01*
X133041621Y-74905984D01*
X133028376Y-74894672D01*
X132812502Y-74762384D01*
X132807932Y-74760491D01*
X132807928Y-74760489D01*
X132583164Y-74667389D01*
X132583162Y-74667388D01*
X132578591Y-74665495D01*
X132459450Y-74636892D01*
X132337216Y-74607546D01*
X132337210Y-74607545D01*
X132332403Y-74606391D01*
X132080000Y-74586526D01*
X131827597Y-74606391D01*
X131822790Y-74607545D01*
X131822784Y-74607546D01*
X131700550Y-74636892D01*
X131581409Y-74665495D01*
X131576838Y-74667388D01*
X131576836Y-74667389D01*
X131352072Y-74760489D01*
X131352068Y-74760491D01*
X131347498Y-74762384D01*
X131131624Y-74894672D01*
X130939102Y-75059102D01*
X130774672Y-75251624D01*
X130642384Y-75467498D01*
X130545495Y-75701409D01*
X130544340Y-75706221D01*
X130488343Y-75939467D01*
X130486391Y-75947597D01*
X130466526Y-76200000D01*
X129540000Y-76200000D01*
X129540000Y-54101000D01*
X129560002Y-54032879D01*
X129613658Y-53986386D01*
X129666000Y-53975000D01*
X157354000Y-53975000D01*
X157422121Y-53995002D01*
G37*
%TD.AperFunction*%
%TD*%
M02*
